<mxfile host="app.diagrams.net" agent="Mozilla/5.0 (Windows NT 10.0; Win64; x64) AppleWebKit/537.36 (KHTML, like Gecko) Chrome/128.0.0.0 Safari/537.36" version="24.7.12">
  <diagram name="Página-1" id="S5G8_zqt5K8Ki9cH2cs7">
    <mxGraphModel dx="1221" dy="599" grid="1" gridSize="10" guides="1" tooltips="1" connect="1" arrows="1" fold="1" page="1" pageScale="1" pageWidth="827" pageHeight="1169" math="0" shadow="0">
      <root>
        <mxCell id="0" />
        <mxCell id="1" parent="0" />
        <mxCell id="e_4fx0ZrgVKR6o98eJWp-1" value="&lt;b style=&quot;-webkit-tap-highlight-color: transparent; color: rgb(60, 64, 67); font-family: Roboto, Arial, sans-serif; font-size: 14px; letter-spacing: 0.2px; text-align: start;&quot;&gt;&amp;nbsp;Campus&lt;/b&gt;" style="rounded=0;whiteSpace=wrap;html=1;" parent="1" vertex="1">
          <mxGeometry x="20" y="330" width="120" height="60" as="geometry" />
        </mxCell>
        <mxCell id="e_4fx0ZrgVKR6o98eJWp-2" value="&lt;b style=&quot;-webkit-tap-highlight-color: transparent; color: rgb(60, 64, 67); font-family: Roboto, Arial, sans-serif; font-size: 14px; letter-spacing: 0.2px; text-align: start;&quot;&gt;Faculdades&lt;/b&gt;" style="rounded=0;whiteSpace=wrap;html=1;" parent="1" vertex="1">
          <mxGeometry x="270" y="330" width="120" height="60" as="geometry" />
        </mxCell>
        <mxCell id="e_4fx0ZrgVKR6o98eJWp-25" value="" style="edgeStyle=orthogonalEdgeStyle;rounded=0;orthogonalLoop=1;jettySize=auto;html=1;endArrow=none;endFill=0;" parent="1" source="e_4fx0ZrgVKR6o98eJWp-3" target="e_4fx0ZrgVKR6o98eJWp-24" edge="1">
          <mxGeometry relative="1" as="geometry" />
        </mxCell>
        <mxCell id="e_4fx0ZrgVKR6o98eJWp-3" value="&lt;b style=&quot;-webkit-tap-highlight-color: transparent; color: rgb(60, 64, 67); font-family: Roboto, Arial, sans-serif; font-size: 14px; letter-spacing: 0.2px; text-align: start;&quot;&gt;Departamentos&lt;/b&gt;" style="rounded=0;whiteSpace=wrap;html=1;" parent="1" vertex="1">
          <mxGeometry x="270" y="500" width="120" height="60" as="geometry" />
        </mxCell>
        <mxCell id="e_4fx0ZrgVKR6o98eJWp-4" value="&lt;b style=&quot;-webkit-tap-highlight-color: transparent; color: rgb(60, 64, 67); font-family: Roboto, Arial, sans-serif; font-size: 14px; letter-spacing: 0.2px; text-align: start;&quot;&gt;Cursos&lt;/b&gt;" style="rounded=0;whiteSpace=wrap;html=1;" parent="1" vertex="1">
          <mxGeometry x="520" y="330" width="120" height="60" as="geometry" />
        </mxCell>
        <mxCell id="e_4fx0ZrgVKR6o98eJWp-5" value="&lt;b style=&quot;-webkit-tap-highlight-color: transparent; color: rgb(60, 64, 67); font-family: Roboto, Arial, sans-serif; font-size: 14px; letter-spacing: 0.2px; text-align: start;&quot;&gt;Disciplinas&lt;/b&gt;" style="rounded=0;whiteSpace=wrap;html=1;" parent="1" vertex="1">
          <mxGeometry x="520" y="500" width="120" height="60" as="geometry" />
        </mxCell>
        <mxCell id="e_4fx0ZrgVKR6o98eJWp-7" value="&lt;b style=&quot;-webkit-tap-highlight-color: transparent; color: rgb(60, 64, 67); font-family: Roboto, Arial, sans-serif; font-size: 14px; letter-spacing: 0.2px; text-align: start;&quot;&gt;Professores&lt;/b&gt;" style="rounded=0;whiteSpace=wrap;html=1;" parent="1" vertex="1">
          <mxGeometry x="270" y="690" width="120" height="60" as="geometry" />
        </mxCell>
        <mxCell id="e_4fx0ZrgVKR6o98eJWp-8" value="&lt;b style=&quot;-webkit-tap-highlight-color: transparent; color: rgb(60, 64, 67); font-family: Roboto, Arial, sans-serif; font-size: 14px; letter-spacing: 0.2px; text-align: start;&quot;&gt;Alunos&lt;/b&gt;" style="rounded=0;whiteSpace=wrap;html=1;" parent="1" vertex="1">
          <mxGeometry x="520" y="690" width="120" height="60" as="geometry" />
        </mxCell>
        <mxCell id="e_4fx0ZrgVKR6o98eJWp-9" value="&lt;b style=&quot;-webkit-tap-highlight-color: transparent; color: rgb(60, 64, 67); font-family: Roboto, Arial, sans-serif; font-size: 14px; letter-spacing: 0.2px; text-align: start;&quot;&gt;Turmas&lt;/b&gt;" style="rounded=0;whiteSpace=wrap;html=1;" parent="1" vertex="1">
          <mxGeometry x="690" y="410" width="120" height="60" as="geometry" />
        </mxCell>
        <mxCell id="e_4fx0ZrgVKR6o98eJWp-10" value="&lt;b style=&quot;-webkit-tap-highlight-color: transparent; color: rgb(60, 64, 67); font-family: Roboto, Arial, sans-serif; font-size: 14px; letter-spacing: 0.2px; text-align: start;&quot;&gt;Biblioteca&lt;/b&gt;" style="rounded=0;whiteSpace=wrap;html=1;" parent="1" vertex="1">
          <mxGeometry x="270" y="110" width="120" height="60" as="geometry" />
        </mxCell>
        <mxCell id="e_4fx0ZrgVKR6o98eJWp-12" value="&lt;b style=&quot;-webkit-tap-highlight-color: transparent; color: rgb(60, 64, 67); font-family: Roboto, Arial, sans-serif; font-size: 14px; letter-spacing: 0.2px; text-align: start;&quot;&gt;Administração&lt;/b&gt;" style="rounded=0;whiteSpace=wrap;html=1;" parent="1" vertex="1">
          <mxGeometry x="440" y="110" width="120" height="60" as="geometry" />
        </mxCell>
        <mxCell id="e_4fx0ZrgVKR6o98eJWp-13" value="&lt;b style=&quot;-webkit-tap-highlight-color: transparent; color: rgb(60, 64, 67); font-family: Roboto, Arial, sans-serif; font-size: 14px; letter-spacing: 0.2px; text-align: start;&quot;&gt;Eventos Acadêmicos&lt;/b&gt;" style="rounded=0;whiteSpace=wrap;html=1;" parent="1" vertex="1">
          <mxGeometry x="100" y="110" width="120" height="60" as="geometry" />
        </mxCell>
        <mxCell id="e_4fx0ZrgVKR6o98eJWp-15" value="" style="edgeStyle=orthogonalEdgeStyle;rounded=0;orthogonalLoop=1;jettySize=auto;html=1;endArrow=none;endFill=0;" parent="1" source="e_4fx0ZrgVKR6o98eJWp-14" target="e_4fx0ZrgVKR6o98eJWp-1" edge="1">
          <mxGeometry relative="1" as="geometry" />
        </mxCell>
        <mxCell id="e_4fx0ZrgVKR6o98eJWp-16" value="" style="edgeStyle=orthogonalEdgeStyle;rounded=0;orthogonalLoop=1;jettySize=auto;html=1;endArrow=none;endFill=0;" parent="1" source="e_4fx0ZrgVKR6o98eJWp-14" target="e_4fx0ZrgVKR6o98eJWp-2" edge="1">
          <mxGeometry relative="1" as="geometry" />
        </mxCell>
        <mxCell id="e_4fx0ZrgVKR6o98eJWp-14" value="Tem" style="rhombus;whiteSpace=wrap;html=1;" parent="1" vertex="1">
          <mxGeometry x="180" y="342.5" width="50" height="35" as="geometry" />
        </mxCell>
        <mxCell id="e_4fx0ZrgVKR6o98eJWp-17" value="1" style="text;html=1;align=center;verticalAlign=middle;whiteSpace=wrap;rounded=0;" parent="1" vertex="1">
          <mxGeometry x="140" y="340" width="20" height="20" as="geometry" />
        </mxCell>
        <mxCell id="e_4fx0ZrgVKR6o98eJWp-18" value="N" style="text;html=1;align=center;verticalAlign=middle;whiteSpace=wrap;rounded=0;" parent="1" vertex="1">
          <mxGeometry x="250" y="340" width="20" height="20" as="geometry" />
        </mxCell>
        <mxCell id="e_4fx0ZrgVKR6o98eJWp-20" value="" style="edgeStyle=orthogonalEdgeStyle;rounded=0;orthogonalLoop=1;jettySize=auto;html=1;endArrow=none;endFill=0;" parent="1" source="e_4fx0ZrgVKR6o98eJWp-19" target="e_4fx0ZrgVKR6o98eJWp-2" edge="1">
          <mxGeometry relative="1" as="geometry" />
        </mxCell>
        <mxCell id="e_4fx0ZrgVKR6o98eJWp-21" value="" style="edgeStyle=orthogonalEdgeStyle;rounded=0;orthogonalLoop=1;jettySize=auto;html=1;endArrow=none;endFill=0;" parent="1" source="e_4fx0ZrgVKR6o98eJWp-19" target="e_4fx0ZrgVKR6o98eJWp-4" edge="1">
          <mxGeometry relative="1" as="geometry" />
        </mxCell>
        <mxCell id="e_4fx0ZrgVKR6o98eJWp-19" value="Tem" style="rhombus;whiteSpace=wrap;html=1;" parent="1" vertex="1">
          <mxGeometry x="430" y="342.5" width="50" height="35" as="geometry" />
        </mxCell>
        <mxCell id="e_4fx0ZrgVKR6o98eJWp-22" value="N" style="text;html=1;align=center;verticalAlign=middle;whiteSpace=wrap;rounded=0;" parent="1" vertex="1">
          <mxGeometry x="390" y="340" width="20" height="20" as="geometry" />
        </mxCell>
        <mxCell id="e_4fx0ZrgVKR6o98eJWp-23" value="N" style="text;html=1;align=center;verticalAlign=middle;whiteSpace=wrap;rounded=0;" parent="1" vertex="1">
          <mxGeometry x="500" y="340" width="20" height="20" as="geometry" />
        </mxCell>
        <mxCell id="e_4fx0ZrgVKR6o98eJWp-26" value="" style="edgeStyle=orthogonalEdgeStyle;rounded=0;orthogonalLoop=1;jettySize=auto;html=1;endArrow=none;endFill=0;" parent="1" source="e_4fx0ZrgVKR6o98eJWp-24" target="e_4fx0ZrgVKR6o98eJWp-2" edge="1">
          <mxGeometry relative="1" as="geometry" />
        </mxCell>
        <mxCell id="e_4fx0ZrgVKR6o98eJWp-24" value="Tem" style="rhombus;whiteSpace=wrap;html=1;" parent="1" vertex="1">
          <mxGeometry x="305" y="430" width="50" height="35" as="geometry" />
        </mxCell>
        <mxCell id="e_4fx0ZrgVKR6o98eJWp-27" value="1" style="text;html=1;align=center;verticalAlign=middle;whiteSpace=wrap;rounded=0;" parent="1" vertex="1">
          <mxGeometry x="310" y="390" width="20" height="20" as="geometry" />
        </mxCell>
        <mxCell id="e_4fx0ZrgVKR6o98eJWp-28" value="N" style="text;html=1;align=center;verticalAlign=middle;whiteSpace=wrap;rounded=0;" parent="1" vertex="1">
          <mxGeometry x="310" y="480" width="20" height="20" as="geometry" />
        </mxCell>
        <mxCell id="e_4fx0ZrgVKR6o98eJWp-42" value="" style="edgeStyle=orthogonalEdgeStyle;rounded=0;orthogonalLoop=1;jettySize=auto;html=1;endArrow=none;endFill=0;entryX=1;entryY=0.5;entryDx=0;entryDy=0;" parent="1" source="e_4fx0ZrgVKR6o98eJWp-36" target="e_4fx0ZrgVKR6o98eJWp-4" edge="1">
          <mxGeometry relative="1" as="geometry">
            <Array as="points">
              <mxPoint x="670" y="358" />
              <mxPoint x="640" y="358" />
            </Array>
          </mxGeometry>
        </mxCell>
        <mxCell id="e_4fx0ZrgVKR6o98eJWp-36" value="Tem" style="rhombus;whiteSpace=wrap;html=1;" parent="1" vertex="1">
          <mxGeometry x="670" y="340" width="50" height="35" as="geometry" />
        </mxCell>
        <mxCell id="e_4fx0ZrgVKR6o98eJWp-37" value="1" style="text;html=1;align=center;verticalAlign=middle;whiteSpace=wrap;rounded=0;" parent="1" vertex="1">
          <mxGeometry x="640" y="340" width="20" height="20" as="geometry" />
        </mxCell>
        <mxCell id="e_4fx0ZrgVKR6o98eJWp-38" value="N" style="text;html=1;align=center;verticalAlign=middle;whiteSpace=wrap;rounded=0;" parent="1" vertex="1">
          <mxGeometry x="750" y="390" width="20" height="20" as="geometry" />
        </mxCell>
        <mxCell id="e_4fx0ZrgVKR6o98eJWp-44" value="" style="edgeStyle=orthogonalEdgeStyle;rounded=0;orthogonalLoop=1;jettySize=auto;html=1;endArrow=none;endFill=0;" parent="1" source="e_4fx0ZrgVKR6o98eJWp-43" target="e_4fx0ZrgVKR6o98eJWp-5" edge="1">
          <mxGeometry relative="1" as="geometry" />
        </mxCell>
        <mxCell id="e_4fx0ZrgVKR6o98eJWp-46" style="edgeStyle=orthogonalEdgeStyle;rounded=0;orthogonalLoop=1;jettySize=auto;html=1;entryX=1;entryY=0.5;entryDx=0;entryDy=0;endArrow=none;endFill=0;" parent="1" source="e_4fx0ZrgVKR6o98eJWp-43" target="e_4fx0ZrgVKR6o98eJWp-3" edge="1">
          <mxGeometry relative="1" as="geometry" />
        </mxCell>
        <mxCell id="e_4fx0ZrgVKR6o98eJWp-43" value="&lt;font style=&quot;font-size: 11px;&quot;&gt;Faz&lt;/font&gt;&lt;div style=&quot;font-size: 11px;&quot;&gt;&lt;font style=&quot;font-size: 11px;&quot;&gt;parte&lt;/font&gt;&lt;/div&gt;" style="rhombus;whiteSpace=wrap;html=1;" parent="1" vertex="1">
          <mxGeometry x="430" y="506.25" width="50" height="47.5" as="geometry" />
        </mxCell>
        <mxCell id="e_4fx0ZrgVKR6o98eJWp-47" value="1" style="text;html=1;align=center;verticalAlign=middle;whiteSpace=wrap;rounded=0;" parent="1" vertex="1">
          <mxGeometry x="390" y="510" width="20" height="20" as="geometry" />
        </mxCell>
        <mxCell id="e_4fx0ZrgVKR6o98eJWp-48" value="N" style="text;html=1;align=center;verticalAlign=middle;whiteSpace=wrap;rounded=0;" parent="1" vertex="1">
          <mxGeometry x="500" y="510" width="20" height="20" as="geometry" />
        </mxCell>
        <mxCell id="e_4fx0ZrgVKR6o98eJWp-50" value="" style="edgeStyle=orthogonalEdgeStyle;rounded=0;orthogonalLoop=1;jettySize=auto;html=1;endArrow=none;endFill=0;" parent="1" source="e_4fx0ZrgVKR6o98eJWp-49" target="e_4fx0ZrgVKR6o98eJWp-4" edge="1">
          <mxGeometry relative="1" as="geometry" />
        </mxCell>
        <mxCell id="e_4fx0ZrgVKR6o98eJWp-51" value="" style="edgeStyle=orthogonalEdgeStyle;rounded=0;orthogonalLoop=1;jettySize=auto;html=1;endArrow=none;endFill=0;" parent="1" source="e_4fx0ZrgVKR6o98eJWp-49" target="e_4fx0ZrgVKR6o98eJWp-5" edge="1">
          <mxGeometry relative="1" as="geometry" />
        </mxCell>
        <mxCell id="e_4fx0ZrgVKR6o98eJWp-49" value="Tem" style="rhombus;whiteSpace=wrap;html=1;" parent="1" vertex="1">
          <mxGeometry x="555" y="430" width="50" height="35" as="geometry" />
        </mxCell>
        <mxCell id="e_4fx0ZrgVKR6o98eJWp-52" value="N" style="text;html=1;align=center;verticalAlign=middle;whiteSpace=wrap;rounded=0;" parent="1" vertex="1">
          <mxGeometry x="560" y="480" width="20" height="20" as="geometry" />
        </mxCell>
        <mxCell id="e_4fx0ZrgVKR6o98eJWp-55" value="N" style="text;html=1;align=center;verticalAlign=middle;whiteSpace=wrap;rounded=0;" parent="1" vertex="1">
          <mxGeometry x="560" y="390" width="20" height="20" as="geometry" />
        </mxCell>
        <mxCell id="e_4fx0ZrgVKR6o98eJWp-58" style="edgeStyle=orthogonalEdgeStyle;rounded=0;orthogonalLoop=1;jettySize=auto;html=1;entryX=0.5;entryY=1;entryDx=0;entryDy=0;endArrow=none;endFill=0;" parent="1" source="e_4fx0ZrgVKR6o98eJWp-56" target="e_4fx0ZrgVKR6o98eJWp-3" edge="1">
          <mxGeometry relative="1" as="geometry" />
        </mxCell>
        <mxCell id="e_4fx0ZrgVKR6o98eJWp-59" value="" style="edgeStyle=orthogonalEdgeStyle;rounded=0;orthogonalLoop=1;jettySize=auto;html=1;endArrow=none;endFill=0;" parent="1" source="e_4fx0ZrgVKR6o98eJWp-56" target="e_4fx0ZrgVKR6o98eJWp-7" edge="1">
          <mxGeometry relative="1" as="geometry" />
        </mxCell>
        <mxCell id="e_4fx0ZrgVKR6o98eJWp-56" value="Tem" style="rhombus;whiteSpace=wrap;html=1;" parent="1" vertex="1">
          <mxGeometry x="305" y="610" width="50" height="35" as="geometry" />
        </mxCell>
        <mxCell id="e_4fx0ZrgVKR6o98eJWp-60" value="1" style="text;html=1;align=center;verticalAlign=middle;whiteSpace=wrap;rounded=0;" parent="1" vertex="1">
          <mxGeometry x="310" y="670" width="20" height="20" as="geometry" />
        </mxCell>
        <mxCell id="e_4fx0ZrgVKR6o98eJWp-61" value="1" style="text;html=1;align=center;verticalAlign=middle;whiteSpace=wrap;rounded=0;" parent="1" vertex="1">
          <mxGeometry x="310" y="560" width="20" height="20" as="geometry" />
        </mxCell>
        <mxCell id="e_4fx0ZrgVKR6o98eJWp-64" style="edgeStyle=orthogonalEdgeStyle;rounded=0;orthogonalLoop=1;jettySize=auto;html=1;entryX=0.75;entryY=0;entryDx=0;entryDy=0;endArrow=none;endFill=0;" parent="1" edge="1">
          <mxGeometry relative="1" as="geometry">
            <mxPoint x="440.0088183421517" y="627.4938271604938" as="sourcePoint" />
            <mxPoint x="370" y="690" as="targetPoint" />
            <Array as="points">
              <mxPoint x="370" y="627" />
            </Array>
          </mxGeometry>
        </mxCell>
        <mxCell id="e_4fx0ZrgVKR6o98eJWp-62" value="&lt;font style=&quot;font-size: 8px;&quot;&gt;Leciona&lt;/font&gt;" style="rhombus;whiteSpace=wrap;html=1;" parent="1" vertex="1">
          <mxGeometry x="430" y="610" width="50" height="35" as="geometry" />
        </mxCell>
        <mxCell id="e_4fx0ZrgVKR6o98eJWp-65" style="edgeStyle=orthogonalEdgeStyle;rounded=0;orthogonalLoop=1;jettySize=auto;html=1;entryX=0.167;entryY=1;entryDx=0;entryDy=0;entryPerimeter=0;endArrow=none;endFill=0;" parent="1" source="e_4fx0ZrgVKR6o98eJWp-62" target="e_4fx0ZrgVKR6o98eJWp-5" edge="1">
          <mxGeometry relative="1" as="geometry" />
        </mxCell>
        <mxCell id="e_4fx0ZrgVKR6o98eJWp-66" value="1" style="text;html=1;align=center;verticalAlign=middle;whiteSpace=wrap;rounded=0;" parent="1" vertex="1">
          <mxGeometry x="370" y="670" width="20" height="20" as="geometry" />
        </mxCell>
        <mxCell id="e_4fx0ZrgVKR6o98eJWp-67" value="N" style="text;html=1;align=center;verticalAlign=middle;whiteSpace=wrap;rounded=0;" parent="1" vertex="1">
          <mxGeometry x="520" y="560" width="20" height="20" as="geometry" />
        </mxCell>
        <mxCell id="e_4fx0ZrgVKR6o98eJWp-69" style="edgeStyle=orthogonalEdgeStyle;rounded=0;orthogonalLoop=1;jettySize=auto;html=1;entryX=1;entryY=0.5;entryDx=0;entryDy=0;endArrow=none;endFill=0;" parent="1" source="e_4fx0ZrgVKR6o98eJWp-68" target="e_4fx0ZrgVKR6o98eJWp-7" edge="1">
          <mxGeometry relative="1" as="geometry" />
        </mxCell>
        <mxCell id="e_4fx0ZrgVKR6o98eJWp-70" style="rounded=0;orthogonalLoop=1;jettySize=auto;html=1;exitX=1;exitY=0.5;exitDx=0;exitDy=0;entryX=0;entryY=0.5;entryDx=0;entryDy=0;endArrow=none;endFill=0;" parent="1" source="e_4fx0ZrgVKR6o98eJWp-68" target="e_4fx0ZrgVKR6o98eJWp-8" edge="1">
          <mxGeometry relative="1" as="geometry" />
        </mxCell>
        <mxCell id="e_4fx0ZrgVKR6o98eJWp-68" value="Tem" style="rhombus;whiteSpace=wrap;html=1;" parent="1" vertex="1">
          <mxGeometry x="430" y="702.5" width="50" height="35" as="geometry" />
        </mxCell>
        <mxCell id="e_4fx0ZrgVKR6o98eJWp-71" value="N" style="text;html=1;align=center;verticalAlign=middle;whiteSpace=wrap;rounded=0;" parent="1" vertex="1">
          <mxGeometry x="390" y="699.5" width="20" height="20" as="geometry" />
        </mxCell>
        <mxCell id="e_4fx0ZrgVKR6o98eJWp-72" value="N" style="text;html=1;align=center;verticalAlign=middle;whiteSpace=wrap;rounded=0;" parent="1" vertex="1">
          <mxGeometry x="500" y="699.5" width="20" height="20" as="geometry" />
        </mxCell>
        <mxCell id="e_4fx0ZrgVKR6o98eJWp-75" style="edgeStyle=orthogonalEdgeStyle;rounded=0;orthogonalLoop=1;jettySize=auto;html=1;entryX=0.5;entryY=0;entryDx=0;entryDy=0;endArrow=none;endFill=0;" parent="1" source="e_4fx0ZrgVKR6o98eJWp-74" target="e_4fx0ZrgVKR6o98eJWp-8" edge="1">
          <mxGeometry relative="1" as="geometry" />
        </mxCell>
        <mxCell id="e_4fx0ZrgVKR6o98eJWp-76" style="edgeStyle=orthogonalEdgeStyle;rounded=0;orthogonalLoop=1;jettySize=auto;html=1;entryX=0.5;entryY=1;entryDx=0;entryDy=0;endArrow=none;endFill=0;" parent="1" source="e_4fx0ZrgVKR6o98eJWp-74" target="e_4fx0ZrgVKR6o98eJWp-5" edge="1">
          <mxGeometry relative="1" as="geometry" />
        </mxCell>
        <mxCell id="e_4fx0ZrgVKR6o98eJWp-74" value="Tem" style="rhombus;whiteSpace=wrap;html=1;" parent="1" vertex="1">
          <mxGeometry x="555" y="610" width="50" height="35" as="geometry" />
        </mxCell>
        <mxCell id="e_4fx0ZrgVKR6o98eJWp-77" value="1" style="text;html=1;align=center;verticalAlign=middle;whiteSpace=wrap;rounded=0;" parent="1" vertex="1">
          <mxGeometry x="580" y="670" width="20" height="20" as="geometry" />
        </mxCell>
        <mxCell id="e_4fx0ZrgVKR6o98eJWp-78" value="N" style="text;html=1;align=center;verticalAlign=middle;whiteSpace=wrap;rounded=0;" parent="1" vertex="1">
          <mxGeometry x="580" y="560" width="20" height="20" as="geometry" />
        </mxCell>
        <mxCell id="e_4fx0ZrgVKR6o98eJWp-81" value="Tem" style="rhombus;whiteSpace=wrap;html=1;" parent="1" vertex="1">
          <mxGeometry x="725" y="512.5" width="50" height="35" as="geometry" />
        </mxCell>
        <mxCell id="e_4fx0ZrgVKR6o98eJWp-82" style="edgeStyle=orthogonalEdgeStyle;rounded=0;orthogonalLoop=1;jettySize=auto;html=1;entryX=0.5;entryY=1;entryDx=0;entryDy=0;endArrow=none;endFill=0;" parent="1" source="e_4fx0ZrgVKR6o98eJWp-81" target="e_4fx0ZrgVKR6o98eJWp-9" edge="1">
          <mxGeometry relative="1" as="geometry" />
        </mxCell>
        <mxCell id="e_4fx0ZrgVKR6o98eJWp-83" style="edgeStyle=orthogonalEdgeStyle;rounded=0;orthogonalLoop=1;jettySize=auto;html=1;entryX=1.024;entryY=0.513;entryDx=0;entryDy=0;entryPerimeter=0;endArrow=none;endFill=0;" parent="1" source="e_4fx0ZrgVKR6o98eJWp-81" target="e_4fx0ZrgVKR6o98eJWp-5" edge="1">
          <mxGeometry relative="1" as="geometry" />
        </mxCell>
        <mxCell id="e_4fx0ZrgVKR6o98eJWp-84" value="1" style="text;html=1;align=center;verticalAlign=middle;whiteSpace=wrap;rounded=0;" parent="1" vertex="1">
          <mxGeometry x="640" y="510" width="20" height="20" as="geometry" />
        </mxCell>
        <mxCell id="e_4fx0ZrgVKR6o98eJWp-87" value="N" style="text;html=1;align=center;verticalAlign=middle;whiteSpace=wrap;rounded=0;" parent="1" vertex="1">
          <mxGeometry x="730" y="471" width="20" height="20" as="geometry" />
        </mxCell>
        <mxCell id="H1fN4fulN-GAYaqD0Phw-3" style="edgeStyle=orthogonalEdgeStyle;rounded=0;orthogonalLoop=1;jettySize=auto;html=1;entryX=0.5;entryY=0;entryDx=0;entryDy=0;endArrow=none;endFill=0;" parent="1" source="e_4fx0ZrgVKR6o98eJWp-90" target="e_4fx0ZrgVKR6o98eJWp-2" edge="1">
          <mxGeometry relative="1" as="geometry" />
        </mxCell>
        <mxCell id="H1fN4fulN-GAYaqD0Phw-4" style="edgeStyle=orthogonalEdgeStyle;rounded=0;orthogonalLoop=1;jettySize=auto;html=1;entryX=0.5;entryY=1;entryDx=0;entryDy=0;endArrow=none;endFill=0;" parent="1" source="e_4fx0ZrgVKR6o98eJWp-90" target="e_4fx0ZrgVKR6o98eJWp-10" edge="1">
          <mxGeometry relative="1" as="geometry" />
        </mxCell>
        <mxCell id="e_4fx0ZrgVKR6o98eJWp-90" value="Tem" style="rhombus;whiteSpace=wrap;html=1;" parent="1" vertex="1">
          <mxGeometry x="305" y="230" width="50" height="35" as="geometry" />
        </mxCell>
        <mxCell id="e_4fx0ZrgVKR6o98eJWp-98" value="1" style="text;html=1;align=center;verticalAlign=middle;whiteSpace=wrap;rounded=0;" parent="1" vertex="1">
          <mxGeometry x="310" y="170" width="20" height="20" as="geometry" />
        </mxCell>
        <mxCell id="H1fN4fulN-GAYaqD0Phw-5" value="1" style="text;html=1;align=center;verticalAlign=middle;whiteSpace=wrap;rounded=0;" parent="1" vertex="1">
          <mxGeometry x="310" y="307.5" width="20" height="20" as="geometry" />
        </mxCell>
        <mxCell id="H1fN4fulN-GAYaqD0Phw-7" value="" style="edgeStyle=orthogonalEdgeStyle;rounded=0;orthogonalLoop=1;jettySize=auto;html=1;endArrow=none;endFill=0;" parent="1" source="H1fN4fulN-GAYaqD0Phw-6" target="e_4fx0ZrgVKR6o98eJWp-12" edge="1">
          <mxGeometry relative="1" as="geometry" />
        </mxCell>
        <mxCell id="H1fN4fulN-GAYaqD0Phw-8" style="edgeStyle=orthogonalEdgeStyle;rounded=0;orthogonalLoop=1;jettySize=auto;html=1;entryX=0.859;entryY=0.011;entryDx=0;entryDy=0;endArrow=none;endFill=0;entryPerimeter=0;" parent="1" source="H1fN4fulN-GAYaqD0Phw-6" target="e_4fx0ZrgVKR6o98eJWp-2" edge="1">
          <mxGeometry relative="1" as="geometry" />
        </mxCell>
        <mxCell id="H1fN4fulN-GAYaqD0Phw-6" value="Tem" style="rhombus;whiteSpace=wrap;html=1;" parent="1" vertex="1">
          <mxGeometry x="475" y="230" width="50" height="35" as="geometry" />
        </mxCell>
        <mxCell id="H1fN4fulN-GAYaqD0Phw-9" value="1" style="text;html=1;align=center;verticalAlign=middle;whiteSpace=wrap;rounded=0;" parent="1" vertex="1">
          <mxGeometry x="475" y="170" width="20" height="20" as="geometry" />
        </mxCell>
        <mxCell id="H1fN4fulN-GAYaqD0Phw-10" value="1" style="text;html=1;align=center;verticalAlign=middle;whiteSpace=wrap;rounded=0;" parent="1" vertex="1">
          <mxGeometry x="370" y="310" width="20" height="20" as="geometry" />
        </mxCell>
        <mxCell id="H1fN4fulN-GAYaqD0Phw-13" style="edgeStyle=orthogonalEdgeStyle;rounded=0;orthogonalLoop=1;jettySize=auto;html=1;entryX=0.5;entryY=1;entryDx=0;entryDy=0;endArrow=none;endFill=0;" parent="1" source="H1fN4fulN-GAYaqD0Phw-12" target="e_4fx0ZrgVKR6o98eJWp-13" edge="1">
          <mxGeometry relative="1" as="geometry" />
        </mxCell>
        <mxCell id="H1fN4fulN-GAYaqD0Phw-12" value="Tem" style="rhombus;whiteSpace=wrap;html=1;" parent="1" vertex="1">
          <mxGeometry x="135" y="230" width="50" height="35" as="geometry" />
        </mxCell>
        <mxCell id="H1fN4fulN-GAYaqD0Phw-14" style="edgeStyle=orthogonalEdgeStyle;rounded=0;orthogonalLoop=1;jettySize=auto;html=1;entryX=0.148;entryY=-0.045;entryDx=0;entryDy=0;entryPerimeter=0;endArrow=none;endFill=0;" parent="1" source="H1fN4fulN-GAYaqD0Phw-12" target="e_4fx0ZrgVKR6o98eJWp-2" edge="1">
          <mxGeometry relative="1" as="geometry" />
        </mxCell>
        <mxCell id="H1fN4fulN-GAYaqD0Phw-15" value="1" style="text;html=1;align=center;verticalAlign=middle;whiteSpace=wrap;rounded=0;" parent="1" vertex="1">
          <mxGeometry x="270" y="307.5" width="20" height="20" as="geometry" />
        </mxCell>
        <mxCell id="H1fN4fulN-GAYaqD0Phw-16" value="N" style="text;html=1;align=center;verticalAlign=middle;whiteSpace=wrap;rounded=0;" parent="1" vertex="1">
          <mxGeometry x="160" y="170" width="20" height="20" as="geometry" />
        </mxCell>
        <mxCell id="fEB0vhAimViO5jXKc1aM-1" style="edgeStyle=orthogonalEdgeStyle;rounded=0;orthogonalLoop=1;jettySize=auto;html=1;entryX=1;entryY=0.5;entryDx=0;entryDy=0;endArrow=none;endFill=0;" parent="1" source="e_4fx0ZrgVKR6o98eJWp-9" target="e_4fx0ZrgVKR6o98eJWp-36" edge="1">
          <mxGeometry relative="1" as="geometry" />
        </mxCell>
        <mxCell id="YG9HDVKhr7C_j0EJbxk8-1" value="&lt;font style=&quot;font-size: 22px;&quot;&gt;&lt;b&gt;Diagrama Conceitual — Universidade&lt;/b&gt;&lt;/font&gt;" style="text;html=1;align=center;verticalAlign=middle;resizable=0;points=[];autosize=1;strokeColor=none;fillColor=none;" vertex="1" parent="1">
          <mxGeometry x="209" y="20" width="410" height="40" as="geometry" />
        </mxCell>
      </root>
    </mxGraphModel>
  </diagram>
</mxfile>
